HIERARCHY
ROOT Hip
{
	OFFSET 0 1.131 0.0052
	CHANNELS 6 Xposition Yposition Zposition Xrotation Yrotation Zrotation
	JOINT Abdomen
	{
		OFFSET 0 -0.047353 -0.05
		CHANNELS 3 Xrotation Zrotation Yrotation
		JOINT Chest
		{
			OFFSET 0 0.132153 0.007439
			CHANNELS 3 Xrotation Zrotation Yrotation
			JOINT Neck
			{
				OFFSET 0 0.3078 0.006161
				CHANNELS 3 Xrotation Zrotation Yrotation
				JOINT Head_comp
				{
					OFFSET 0 0.0884 0.013
					CHANNELS 3 Xrotation Yrotation Zrotation
					End Site
					{
						OFFSET -0 0.156 0.0624
					}
				}
			}
			JOINT Left_Collar
			{
				OFFSET 0.02282 0.250342 0.017193
				CHANNELS 2 Yrotation Zrotation
				JOINT Left_Shoulder
				{
					OFFSET 0.15421 0 0
					CHANNELS 3 Xrotation Yrotation Zrotation
					JOINT Left_Forearm
					{
						OFFSET 0.265212 0 0
						CHANNELS 2 Yrotation Xrotation
						JOINT Left_Hand
						{
							OFFSET 0.27571 0 0
							CHANNELS 2 Zrotation Yrotation
							JOINT L1ProxPhalanx
							{
								OFFSET 0.014142 0.001733 0.014142
								CHANNELS 3 Yrotation Zrotation Xrotation
								JOINT L1MidPhalanx
								{
									OFFSET 0.04 0 0
									CHANNELS 1 Zrotation
									JOINT L1DistPhalanx
									{
										OFFSET 0.035 0 0
										CHANNELS 1 Zrotation
										End Site
										{
											OFFSET 0.029 -0 -0
										}
									}
								}
							}
							JOINT L2ProxPhalanx
							{
								OFFSET 0.0821037 0.001578 0.0219996
								CHANNELS 2 Yrotation Zrotation
								JOINT L2MidPhalanx
								{
									OFFSET 0.04 0 0
									CHANNELS 1 Zrotation
									JOINT L2DistPhalanx
									{
										OFFSET 0.028 0 0
										CHANNELS 1 Zrotation
										End Site
										{
											OFFSET 0.02 -0 -0
										}
									}
								}
							}
							JOINT L3ProxPhalanx
							{
								OFFSET 0.083 0 0
								CHANNELS 2 Yrotation Zrotation
								JOINT L3MidPhalanx
								{
									OFFSET 0.053 0 0
									CHANNELS 1 Zrotation
									JOINT L3DistPhalanx
									{
										OFFSET 0.03 0 0
										CHANNELS 1 Zrotation
										End Site
										{
											OFFSET 0.023 -0 -0
										}
									}
								}
							}
							JOINT L4ProxPhalanx
							{
								OFFSET 0.077274 -0.000761 -0.0207055
								CHANNELS 2 Yrotation Zrotation
								JOINT L4MidPhalanx
								{
									OFFSET 0.05 0 0
									CHANNELS 1 Zrotation
									JOINT L4DistPhalanx
									{
										OFFSET 0.03 0 0
										CHANNELS 1 Zrotation
										End Site
										{
											OFFSET 0.023 -0 -0
										}
									}
								}
							}
							JOINT L5ProxPhalanx
							{
								OFFSET 0.0675499 -0.001644 -0.039
								CHANNELS 2 Yrotation Zrotation
								JOINT L5MidPhalanx
								{
									OFFSET 0.04 0 0
									CHANNELS 1 Zrotation
									JOINT L5DistPhalanx
									{
										OFFSET 0.021 0 0
										CHANNELS 1 Zrotation
										End Site
										{
											OFFSET 0.022 -0 -0
										}
									}
								}
							}
						}
					}
				}
			}
			JOINT Right_Collar
			{
				OFFSET -0.02282 0.250342 0.017193
				CHANNELS 2 Yrotation Zrotation
				JOINT Right_Shoulder
				{
					OFFSET -0.15421 0 0
					CHANNELS 3 Xrotation Yrotation Zrotation
					JOINT Right_Forearm
					{
						OFFSET -0.265212 0 0
						CHANNELS 2 Yrotation Xrotation
						JOINT Right_Hand
						{
							OFFSET -0.27571 3e-006 0
							CHANNELS 2 Zrotation Yrotation
							JOINT R1ProxPhalanx
							{
								OFFSET -0.014142 0.001733 0.014142
								CHANNELS 3 Yrotation Zrotation Xrotation
								JOINT R1MidPhalanx
								{
									OFFSET -0.04 0 0
									CHANNELS 1 Zrotation
									JOINT R1DistPhalanx
									{
										OFFSET -0.035 0 0
										CHANNELS 1 Zrotation
										End Site
										{
											OFFSET -0.029 -0 -0
										}
									}
								}
							}
							JOINT R2ProxPhalanx
							{
								OFFSET -0.0821037 0.001578 0.0219996
								CHANNELS 2 Yrotation Zrotation
								JOINT R2MidPhalanx
								{
									OFFSET -0.04 0 0
									CHANNELS 1 Zrotation
									JOINT R2DistPhalanx
									{
										OFFSET -0.028 0 0
										CHANNELS 1 Zrotation
										End Site
										{
											OFFSET -0.02 -0 -0
										}
									}
								}
							}
							JOINT R3ProxPhalanx
							{
								OFFSET -0.083 0 0
								CHANNELS 2 Yrotation Zrotation
								JOINT R3MidPhalanx
								{
									OFFSET -0.053 0 0
									CHANNELS 1 Zrotation
									JOINT R3DistPhalanx
									{
										OFFSET -0.03 0 0
										CHANNELS 1 Zrotation
										End Site
										{
											OFFSET -0.023 -0 -0
										}
									}
								}
							}
							JOINT R4ProxPhalanx
							{
								OFFSET -0.077274 -0.000761 -0.0207055
								CHANNELS 2 Yrotation Zrotation
								JOINT R4MidPhalanx
								{
									OFFSET -0.05 0 0
									CHANNELS 1 Zrotation
									JOINT R4DistPhalanx
									{
										OFFSET -0.03 0 0
										CHANNELS 1 Zrotation
										End Site
										{
											OFFSET -0.023 -0 -0
										}
									}
								}
							}
							JOINT R5ProxPhalanx
							{
								OFFSET -0.0675499 -0.001644 -0.039
								CHANNELS 2 Yrotation Zrotation
								JOINT R5MidPhalanx
								{
									OFFSET -0.04 0 0
									CHANNELS 1 Zrotation
									JOINT R5DistPhalanx
									{
										OFFSET -0.021 0 0
										CHANNELS 1 Zrotation
										End Site
										{
											OFFSET -0.022 -0 -0
										}
									}
								}
							}
						}
					}
				}
			}
		}
	}
	JOINT Left_Thigh
	{
		OFFSET 0.1118 -0.1612 -0.0442
		CHANNELS 3 Xrotation Zrotation Yrotation
		JOINT Left_Shin
		{
			OFFSET 0 -0.477856 0
			CHANNELS 1 Xrotation
			JOINT Left_Foot
			{
				OFFSET 0 -0.431952 0
				CHANNELS 2 Xrotation Zrotation
				JOINT Left_Toe
				{
					OFFSET 0 -0.0442 0.119
					CHANNELS 1 Xrotation
					End Site
					{
						OFFSET -0 -0 0.07
					}
				}
			}
		}
	}
	JOINT Right_Thigh
	{
		OFFSET -0.1118 -0.1612 -0.0442
		CHANNELS 3 Xrotation Zrotation Yrotation
		JOINT Right_Shin
		{
			OFFSET 0 -0.477856 0
			CHANNELS 1 Xrotation
			JOINT Right_Foot
			{
				OFFSET 0 -0.431952 0
				CHANNELS 2 Xrotation Zrotation
				JOINT Right_Toe
				{
					OFFSET 0 -0.0442 0.119
					CHANNELS 1 Xrotation
					End Site
					{
						OFFSET -0 -0 0.07
					}
				}
			}
		}
	}
}
MOTION
Frames: 8
Frame Time: 0.009975
-0.101351 -0.0603097 0.0606505 -1.32337e-013 1.21601e-007 -5.10821e-006 0 0 0 0 0 0 0 0 0 0 0 0 0 0 -0 0 -0 0 0 0 0 -36.7832 -29.9624 77.4898 -4.76427 -12.2444 -6.63439 -16.4575 -31.3511 -13.5114 -0.647911 -24.507 -18.2419 -18.0941 9.02909 -22.0218 -38.2405 -19.3412 17.3445 -18.4185 -40.523 -37.4487 0 0 -0 0 -0 0 0 0 0 37.9386 28.008 73.698 26.2405 28.4472 13.118 18.2167 29.0248 19.6359 0 22.4358 32.6146 28.1246 -8.63175 30.7051 32.2053 23.7634 -7.83088 26.7354 35.1526 30.0193 1.35227 -0.658014 -0.0155328 0.0240216 -1.3762 0.658202 0 1.36367 -0.65801 -0.0156637 2.83165e-006 -1.36358 0.658202 0 
-0.101351 -0.0603097 0.0606505 -1.32337e-013 1.21601e-007 -5.10821e-006 0 0 0 0 0 0 0 0 0 0 0 0 0 0 -0 0 -0 0 0 0 0 -36.7832 -29.9624 77.4898 -4.76427 -12.2444 -6.63439 -16.4575 -31.3511 -13.5114 -0.647911 -24.507 -18.2419 -18.0941 9.02909 -22.0218 -38.2405 -19.3412 17.3445 -18.4185 -40.523 -37.4487 0 0 -0 0 -0 0 0 0 0 37.9386 28.008 73.698 26.2405 28.4472 13.118 18.2167 29.0248 19.6359 0 22.4358 32.6146 28.1246 -8.63175 30.7051 32.2053 23.7634 -7.83088 26.7354 35.1526 30.0193 1.35227 -0.658014 -0.0155328 0.0240216 -1.3762 0.658202 0 1.36367 -0.65801 -0.0156637 2.83165e-006 -1.36358 0.658202 0 
-0.0993218 -0.0600783 0.0383377 -1.65279e-011 -3.7202e-009 -5.08426e-006 0 -0 0 0 -0 0 0 -0 0 -0.710125 0.300587 -9.36063e-006 -3.17633 -23.561 -7.80887 -41.0803 -47.3609 -54.3188 11.2689 16.6056 11.4208 -89.5632 33.8207 80.7562 -22.77 -25.5369 11.9805 1.80825 -10.9978 -4.95175 7.87047 0.547005 -4.86273 0.880412 1.38849 -14.9072 20.4181 1.81234 -2.65208 -49.9457 58.3415 15.9998 5.02234 33.6989 -15.1379 20.8508 35.7344 52.2665 3.92585 3.74158 -0.6348 78.5976 -4.31477 83.5355 14.0516 7.42444 -1.64305 -0.129078 10.3496 6.10544 -5.49264 7.44096 2.34902 5.19285 -0.983206 20.5714 -4.80496 -6.17065 -3.27674 41.6036 -38.0658 -16.8331 -0.0530631 -0.785839 0.000729595 0.0239015 0.0291565 0.785845 0 -0.0417142 -0.785839 0.000573554 2.40276e-006 0.0417079 0.785845 0 
-0.0991374 -0.0600815 0.0374445 -1.6611e-011 -3.7389e-009 -5.10981e-006 0 -0 0 0 -0 0 0 -0 0 -0.711944 0.284738 -2.00266e-009 -3.19206 -23.6793 -6.31327 -40.9546 -44.6441 -55.7153 11.3212 16.6888 11.4778 -89.7838 34.1055 80.8689 -22.7086 -25.5647 12.044 1.96731 -10.8521 -4.90125 7.90894 0.710181 -4.68616 0.975289 1.38793 -14.8213 20.7217 1.9119 -2.69479 -50.0759 58.8055 16.1807 5.04684 33.8681 -14.6649 21.1814 33.1008 53.3032 3.94418 3.76038 -0.637988 78.7204 -4.45629 83.5836 13.9464 7.36125 -1.65602 -0.280406 10.2006 6.06075 -5.51982 7.31765 2.15982 5.12849 -0.980617 20.514 -5.03011 -6.29211 -3.26317 41.6921 -38.4279 -17.0182 -0.109374 -0.797454 0.00152228 0.0240216 0.0853421 0.797461 0 -0.0979684 -0.797454 0.00136354 1.81113e-008 0.0979589 0.797461 0 
-0.0991232 -0.0600817 0.0374261 6.02724e-012 -8.7749e-009 -5.10981e-006 0 -0 0 0 -0 0 0 -0 0 -0.711921 0.284386 -1.96729e-013 -3.19206 -23.6793 -6.30246 -40.9519 -44.6255 -55.7238 11.3212 16.6888 11.4778 -89.7838 34.1055 80.8689 -22.7086 -25.5647 12.044 1.96731 -10.8521 -4.90125 7.90894 0.710181 -4.68616 0.975289 1.38793 -14.8213 20.7217 1.9119 -2.69479 -50.0759 58.8055 16.1807 5.04684 33.8681 -14.6611 21.1829 33.0829 53.3091 3.94418 3.76038 -0.637988 78.7204 -4.45629 83.5836 13.9464 7.36125 -1.65602 -0.280406 10.2006 6.06075 -5.51982 7.31765 2.15982 5.12849 -0.980617 20.514 -5.03011 -6.29211 -3.26317 41.6921 -38.4279 -17.0182 -0.110531 -0.79835 0.00154008 0.0240216 0.0864983 0.798356 0 -0.0991247 -0.79835 0.00138115 1.69047e-006 0.0991134 0.798356 0 
-0.099123 -0.0600817 0.0374259 4.69382e-012 -8.84144e-009 -5.10981e-006 0 -0 0 0 -0 0 0 -0 0 -0.711921 0.284376 -4.07669e-017 -3.19206 -23.6793 -6.30246 -40.9519 -44.6255 -55.7238 11.3212 16.6888 11.4778 -89.7838 34.1055 80.8689 -22.7086 -25.5647 12.044 1.96731 -10.8521 -4.90125 7.90894 0.710181 -4.68616 0.975289 1.38793 -14.8213 20.7217 1.9119 -2.69479 -50.0759 58.8055 16.1807 5.04684 33.8681 -14.6611 21.1829 33.0829 53.3091 3.94418 3.76038 -0.637988 78.7204 -4.45629 83.5836 13.9464 7.36125 -1.65602 -0.280406 10.2006 6.06075 -5.51982 7.31765 2.15982 5.12849 -0.980617 20.514 -5.03011 -6.29211 -3.26317 41.6921 -38.4279 -17.0182 -0.110544 -0.798365 0.00154029 0.0240216 0.0865116 0.798372 0 -0.0991381 -0.798365 0.00138137 2.13443e-008 0.0991284 0.798372 0 
-0.099123 -0.0600817 0.0374259 -2.705e-012 -8.84146e-009 -5.10981e-006 0 -0 0 0 -0 0 0 -0 0 -0.711921 0.284375 -3.88256e-019 -3.19206 -23.6793 -6.30246 -40.9519 -44.6255 -55.7238 11.3212 16.6888 11.4778 -89.7838 34.1055 80.8689 -22.7086 -25.5647 12.044 1.96731 -10.8521 -4.90125 7.90894 0.710181 -4.68616 0.975289 1.38793 -14.8213 20.7217 1.9119 -2.69479 -50.0759 58.8055 16.1807 5.04684 33.8681 -14.6611 21.1829 33.0829 53.3091 3.94418 3.76038 -0.637988 78.7204 -4.45629 83.5836 13.9464 7.36125 -1.65602 -0.280406 10.2006 6.06075 -5.51982 7.31765 2.15982 5.12849 -0.980617 20.514 -5.03011 -6.29211 -3.26317 41.6921 -38.4279 -17.0182 -0.110544 -0.798365 0.00154029 0.0240216 0.0865117 0.798372 0 -0.0991381 -0.798366 0.00138137 2.37861e-006 0.0991262 0.798372 0 
-0.099123 -0.0600817 0.0374259 -2.81851e-012 -8.84146e-009 -5.10981e-006 0 -0 0 0 -0 0 0 -0 0 -0.711921 0.284375 3.88256e-019 -3.19206 -23.6793 -6.30246 -40.9519 -44.6255 -55.7238 11.3212 16.6888 11.4778 -89.7838 34.1055 80.8689 -22.7086 -25.5647 12.044 1.96731 -10.8521 -4.90125 7.90894 0.710181 -4.68616 0.975289 1.38793 -14.8213 20.7217 1.9119 -2.69479 -50.0759 58.8055 16.1807 5.04684 33.8681 -14.6611 21.1829 33.0829 53.3091 3.94418 3.76038 -0.637988 78.7204 -4.45629 83.5836 13.9464 7.36125 -1.65602 -0.280406 10.2006 6.06075 -5.51982 7.31765 2.15982 5.12849 -0.980617 20.514 -5.03011 -6.29211 -3.26317 41.6921 -38.4279 -17.0182 -0.110544 -0.798365 0.00154029 0.0240216 0.0865118 0.798372 0 -0.0991382 -0.798366 0.00138137 4.22596e-008 0.0991285 0.798372 0 
